<svg viewBox="0 0 1633.09 740.26" xmlns="http://www.w3.org/2000/svg"><g transform="translate(-108.59 -150.74)"><path d="m1399.62 469.84-33.82-13.52c-158.93 357.6-791.17 140.2-829.21 246.58-6.35 71.86 345.26 13.66 596.63 25.84 76.65 3.71 115.09 61.58 82.54 155.89l64.11.2c74-230.54 310-112.89 319.83-189-16.2-50-271.24.03-200.08-225.99z" fill="#fff"/><path d="m1233.8 843.81c10.11-33.71 6.74-67.42-10.11-87.64s-40.45-33.71-70.79-37.08l-588.33-7.09c-3.53 0-7.07-3.53-10.6-3.53q-5.31-5.31 0-10.61c3.53-7.07 7.07-10.62 14.14-10.62l593.14-6.79c71.31-3.39 146-61.12 173.18-129l34-88.29c0-3.4 3.4-6.79 0-10.19-37.43-173.2-193.59-302.23-376.96-302.23-169.79 0-315.8 108.66-366.74 261.47-34-23.77-74.7-37.36-122.24-34-81.5 6.79-146 74.7-156.2 156.2-3.4 20.38 0 40.75 3.4 61.12-132.44 3.4-241.1 112.06-241.1 247.89 0 13.58 0 23.77 3.4 37.35 0 6.8 6.79 10.19 10.19 10.19h1088c6.74 0 13.49-3.37 13.49-10.12z" fill="#f4811f"/><path d="m1422.81 464.41h-20c-3.39 0-6.78 3.38-10.17 6.77l-23.72 81.34c-10.17 33.89-6.78 67.78 10.17 88.11s40.66 33.89 71.16 37.28l125.4 6.78c3.38 0 6.77 3.39 10.16 3.39q5.09 5.07 0 10.16c-3.39 6.78-6.78 10.17-13.56 10.17l-128.77 6.78c-71.17 3.39-145.73 61-172.84 128.77l-6.78 30.51c-3.39 3.39 0 10.16 6.78 10.16h447.36q10.17 0 10.16-10.16c6.78-27.11 13.56-57.61 13.56-88.12 0-176.22-145.73-321.94-322-321.94" fill="#faad3f"/></g></svg>