<svg id="Layer_1" data-name="Layer 1" xmlns="http://www.w3.org/2000/svg" viewBox="0 0 788.29 894.01"><defs><style>.cls-1{fill:#e44f26;}.cls-2{fill:#f1662a;}.cls-3{fill:#ebebeb;}.cls-4{fill:#fff;}</style></defs><title>html</title><polygon class="cls-1" points="71.74 804.64 0 0 788.29 0 716.48 804.51 393.66 894.01 71.74 804.64"/><polygon class="cls-2" points="394.88 823.42 655.72 751.1 717.1 63.6 394.88 63.6 394.88 823.42"/><polygon class="cls-3" points="394.88 363.07 264.74 363.07 255.75 262.37 394.88 262.37 394.88 161.66 394.53 161.66 146.55 161.66 148.92 188.23 173.26 461.13 394.88 461.13 394.88 363.07"/><polygon class="cls-3" points="394.88 619.75 394.44 619.87 284.54 590.19 277.51 511.48 224.1 511.48 178.44 511.48 192.27 666.43 394.42 722.55 394.88 722.42 394.88 619.75"/><polygon class="cls-4" points="394.88 363.07 394.88 461.13 515.63 461.13 504.25 588.31 394.88 617.83 394.88 719.85 595.91 664.13 597.38 647.57 620.42 389.4 622.82 363.07 596.39 363.07 394.88 363.07"/><polygon class="cls-4" points="394.88 164.31 394.88 225.21 394.88 262.13 394.88 262.37 631.4 262.37 631.4 262.37 631.72 262.37 633.69 240.33 638.15 190.62 640.5 164.31 394.88 164.31"/></svg>