<svg viewBox="0 0 788.29 894.01" xmlns="http://www.w3.org/2000/svg"><path d="m71.74 804.64-71.74-804.64h788.29l-71.81 804.51-322.82 89.5z" fill="#e44f26"/><path d="m394.88 823.42 260.84-72.32 61.38-687.5h-322.22z" fill="#f1662a"/><path d="m394.88 363.07h-130.14l-8.99-100.7h139.13v-100.71h-.35-247.98l2.37 26.57 24.34 272.9h221.62z" fill="#ebebeb"/><path d="m394.88 619.75-.44.12-109.9-29.68-7.03-78.71h-53.41-45.66l13.83 154.95 202.15 56.12.46-.13z" fill="#ebebeb"/><g fill="#fff"><path d="m394.88 363.07v98.06h120.75l-11.38 127.18-109.37 29.52v102.02l201.03-55.72 1.47-16.56 23.04-258.17 2.4-26.33h-26.43z"/><path d="m394.88 164.31v60.9 36.92.24h236.52.32l1.97-22.04 4.46-49.71 2.35-26.31z"/></g></svg>