<svg id="Layer_1" data-name="Layer 1" xmlns="http://www.w3.org/2000/svg" viewBox="0 0 1186 570.57"><defs><style>.cls-1{fill:#e44f26;}.cls-2{fill:#f1662a;}.cls-3{fill:#ebebeb;}.cls-4{fill:#fff;}.cls-5{fill:#1572b6;}.cls-6{fill:#33a9dc;}</style></defs><title>htmlcss</title><polygon class="cls-1" points="45.78 513.53 0 0 503.1 0 457.26 513.45 251.24 570.57 45.78 513.53"/><polygon class="cls-2" points="252.01 525.51 418.49 479.36 457.66 40.59 252.01 40.59 252.01 525.51"/><polygon class="cls-3" points="252.01 231.72 168.96 231.72 163.22 167.44 252.01 167.44 252.01 103.17 251.79 103.17 93.53 103.17 95.05 120.13 110.58 294.3 252.01 294.3 252.01 231.72"/><polygon class="cls-3" points="252.01 395.53 251.74 395.61 181.59 376.66 177.11 326.43 143.03 326.43 113.89 326.43 122.71 425.32 251.72 461.14 252.01 461.06 252.01 395.53"/><polygon class="cls-4" points="252.01 231.72 252.01 294.3 329.08 294.3 321.81 375.46 252.01 394.3 252.01 459.42 380.31 423.86 381.25 413.28 395.96 248.52 397.49 231.72 380.62 231.72 252.01 231.72"/><polygon class="cls-4" points="252.01 104.86 252.01 143.73 252.01 167.29 252.01 167.44 402.97 167.44 402.97 167.44 403.17 167.44 404.43 153.38 407.28 121.66 408.77 104.86 252.01 104.86"/><polygon class="cls-5" points="728.69 513.53 682.9 0 1186 0 1140.17 513.45 934.14 570.57 728.69 513.53"/><polygon class="cls-6" points="933.63 525.51 1100.11 479.36 1139.28 40.59 933.63 40.59 933.63 525.51"/><polygon class="cls-4" points="933.63 226.64 1016.69 226.64 1022.42 162.37 933.63 162.37 933.63 99.79 933.85 99.79 1092.12 99.79 1090.6 116.75 1075.07 290.92 933.63 290.92 933.63 226.64"/><polygon class="cls-3" points="935.33 390.45 935.05 390.53 864.91 371.59 860.42 321.36 826.34 321.36 797.2 321.36 806.02 420.25 935.03 456.06 935.33 455.98 935.33 390.45"/><polygon class="cls-4" points="1013.16 287.53 1005.57 371.88 935.33 390.84 935.33 456.37 1064.44 420.58 1065.39 409.94 1076.35 287.53 1013.16 287.53"/><polygon class="cls-3" points="935.33 99.79 935.33 138.66 935.33 162.22 935.33 162.37 784.37 162.37 784.37 162.37 784.17 162.37 782.91 148.31 780.06 116.58 778.57 99.79 935.33 99.79"/><polygon class="cls-3" points="933.63 226.64 933.63 265.51 933.63 289.07 933.63 289.22 865.02 289.22 865.02 289.22 864.82 289.22 863.57 275.16 860.71 243.43 859.22 226.64 933.63 226.64"/></svg>