<svg version="1" xmlns="http://www.w3.org/2000/svg" width="806.667" height="806.667" viewBox="0 0 605.000000 605.000000"><path d="M167.6 66.8c-.2.4-.5 61.2-.4 135V336h74.9c70.6 0 74.9-.1 75-1.8.1-2.6.1-23.4 0-25.7-.1-2-.7-2-57.6-1.9l-57.5.2V66h-16.9c-9.4 0-17.2.4-17.5.8z"/><path d="M267.9 236c0 .5-.1 6.6-.1 13.5s.1 13.2.1 14c.1 1.2 5.8 1.4 40 1.4 22-.1 40.4.1 40.9.5.5.3.9 48.8 1 118.3 0 64.8.1 118.6.1 119.5.1 1.6 1.6 1.8 17.6 1.8H385V265h4.8c2.6-.1 21.1-.2 41.2-.3l36.5-.2V235h-99.7c-65.8 0-99.8.3-99.9 1z"/></svg>