<svg viewBox="0 0 1186 570.57" xmlns="http://www.w3.org/2000/svg"><path d="m45.78 513.53-45.78-513.53h503.1l-45.84 513.45-206.02 57.12z" fill="#e44f26"/><path d="m252.01 525.51 166.48-46.15 39.17-438.77h-205.65z" fill="#f1662a"/><path d="m252.01 231.72h-83.05l-5.74-64.28h88.79v-64.27h-.22-158.26l1.52 16.96 15.53 174.17h141.43z" fill="#ebebeb"/><path d="m252.01 395.53-.27.08-70.15-18.95-4.48-50.23h-34.08-29.14l8.82 98.89 129.01 35.82.29-.08z" fill="#ebebeb"/><path d="m252.01 231.72v62.58h77.07l-7.27 81.16-69.8 18.84v65.12l128.3-35.56.94-10.58 14.71-164.76 1.53-16.8h-16.87z" fill="#fff"/><path d="m252.01 104.86v38.87 23.56.15h150.96.2l1.26-14.06 2.85-31.72 1.49-16.8z" fill="#fff"/><path d="m728.69 513.53-45.79-513.53h503.1l-45.83 513.45-206.03 57.12z" fill="#1572b6"/><path d="m933.63 525.51 166.48-46.15 39.17-438.77h-205.65z" fill="#33a9dc"/><path d="m933.63 226.64h83.06l5.73-64.27h-88.79v-62.58h.22 158.27l-1.52 16.96-15.53 174.17h-141.44z" fill="#fff"/><path d="m935.33 390.45-.28.08-70.14-18.94-4.49-50.23h-34.08-29.14l8.82 98.89 129.01 35.81.3-.08z" fill="#ebebeb"/><path d="m1013.16 287.53-7.59 84.35-70.24 18.96v65.53l129.11-35.79.95-10.64 10.96-122.41z" fill="#fff"/><g fill="#ebebeb"><path d="m935.33 99.79v38.87 23.56.15h-150.96-.2l-1.26-14.06-2.85-31.73-1.49-16.79z"/><path d="m933.63 226.64v38.87 23.56.15h-68.61-.2l-1.25-14.06-2.86-31.73-1.49-16.79z"/></g></svg>