<svg enable-background="new 0 0 512 512" viewBox="0 0 512 512" xmlns="http://www.w3.org/2000/svg"><path d="m291.273 220.481c-.122-.326-.263-.645-.423-.953l-20.002-38.549c-2.188-4.218-7.38-5.866-11.604-3.675-4.22 2.188-5.865 7.384-3.675 11.604l19.757 38.078c10.501 28.5 9.348 59.39-3.264 87.039-12.683 27.804-35.439 49.005-64.071 59.699-11.642 4.348-23.844 6.758-36.269 7.166-12.425-.408-24.627-2.818-36.271-7.166-28.632-10.693-51.386-31.894-64.07-59.699-12.612-27.649-13.766-58.54-3.262-87.039l103.602-199.688 70.198 135.302c2.19 4.219 7.383 5.865 11.605 3.677 4.22-2.19 5.865-7.385 3.677-11.605l-77.838-150.029c-1.481-2.853-4.428-4.643-7.642-4.643-3.215 0-6.161 1.79-7.641 4.643l-111.489 214.885c-.159.309-.3.627-.422.953-12.303 32.94-11.044 68.698 3.55 100.688 14.592 31.988 40.769 56.38 73.709 68.681 13.491 5.039 27.633 7.816 42.031 8.255.087.003.175.004.263.004.087 0 .175-.001.261-.004 14.399-.439 28.541-3.216 42.03-8.255 32.94-12.301 59.118-36.693 73.71-68.681 14.593-31.987 15.854-67.746 3.55-100.688z"/><path d="m463.842 278.136c-.122-.326-.264-.645-.423-.953l-19.609-37.795c-2.188-4.218-7.381-5.864-11.605-3.677-4.22 2.19-5.865 7.385-3.677 11.605l19.36 37.314c9.705 26.766-3.997 56.52-30.726 66.501-5.254 1.961-10.755 3.056-16.357 3.256-5.602-.199-11.105-1.294-16.358-3.255-13.027-4.864-23.378-14.51-29.147-27.159-5.7-12.496-6.256-26.448-1.577-39.342l47.082-90.747 15.599 30.066c2.191 4.22 7.384 5.865 11.605 3.677 4.22-2.19 5.865-7.385 3.676-11.605l-23.24-44.793c-1.48-2.852-4.427-4.643-7.641-4.643-3.215 0-6.161 1.79-7.641 4.643l-54.972 105.954c-.16.309-.301.627-.423.953-6.474 17.333-5.811 36.149 1.867 52.982 7.679 16.833 21.454 29.667 38.789 36.142 7.1 2.65 14.541 4.111 22.116 4.343.088.003.176.004.264.004s.175-.001.267-.005c7.574-.231 15.014-1.692 22.115-4.344 35.779-13.361 54.018-53.341 40.656-89.122z"/><path d="m353.97 444.884-36.629-70.601c-1.48-2.852-4.427-4.643-7.641-4.643-3.215 0-6.161 1.79-7.64 4.643l-36.633 70.601c-.161.309-.303.627-.425.954-9.455 25.326 3.455 53.625 28.782 63.084 5.025 1.874 10.29 2.908 15.651 3.073.088.003.176.004.265.004.088 0 .176-.001.266-.004 5.357-.165 10.622-1.199 15.652-3.074 25.325-9.459 38.234-37.758 28.775-63.084-.122-.325-.264-.644-.423-.953zm-34.374 47.909c-3.182 1.187-6.512 1.855-9.898 1.987-3.389-.132-6.718-.799-9.896-1.985-16.279-6.08-24.652-24.157-18.842-40.473l28.738-55.383 28.733 55.383c5.812 16.315-2.56 34.392-18.835 40.471z"/></svg>